<?xml version="1.0" encoding="UTF-8"?>
<svg id="Layer_2" xmlns="http://www.w3.org/2000/svg" xmlns:xlink="http://www.w3.org/1999/xlink" version="1.1" viewBox="0 0 348 347.6">
  <!-- Generator: Adobe Illustrator 29.0.1, SVG Export Plug-In . SVG Version: 2.1.0 Build 192)  -->
  <defs>
    <style>
      .st0 {
        stroke: #373737;
        stroke-miterlimit: 10;
      }

      .st0, .st1 {
        fill: none;
      }

      .st2 {
        fill: url(#linear-gradient2);
      }

      .st3 {
        fill: url(#linear-gradient1);
      }

      .st4 {
        fill: url(#linear-gradient3);
      }

      .st5 {
        fill: url(#radial-gradient);
      }

      .st6 {
        fill: url(#linear-gradient);
      }

      .st1 {
        stroke: #fff;
        stroke-linejoin: round;
        stroke-width: 5px;
      }
    </style>
    <linearGradient id="linear-gradient" x1="174" y1="185.3" x2="347.8" y2="185.3" gradientTransform="translate(0 348) scale(1 -1)" gradientUnits="userSpaceOnUse">
      <stop offset=".2" stop-color="#98adb3"/>
      <stop offset=".9" stop-color="#c1dbe3"/>
    </linearGradient>
    <linearGradient id="linear-gradient1" x1=".2" y1="185.3" x2="174" y2="185.3" gradientTransform="translate(0 348) scale(1 -1)" gradientUnits="userSpaceOnUse">
      <stop offset=".2" stop-color="#c1dbe3"/>
      <stop offset=".4" stop-color="#bad4db"/>
      <stop offset=".7" stop-color="#a9c0c7"/>
      <stop offset=".9" stop-color="#98adb3"/>
    </linearGradient>
    <radialGradient id="radial-gradient" cx="175.3" cy="-19.1" fx="34.2" fy="23.3" r="147.2" gradientTransform="translate(0 348) scale(1 -1)" gradientUnits="userSpaceOnUse">
      <stop offset=".2" stop-color="#373737"/>
      <stop offset=".3" stop-color="#3c3d3e"/>
      <stop offset=".5" stop-color="#4b5052"/>
      <stop offset=".6" stop-color="#646f73"/>
      <stop offset=".8" stop-color="#8799a0"/>
      <stop offset=".9" stop-color="#97adb5"/>
    </radialGradient>
    <linearGradient id="linear-gradient2" x1="20.6" y1="187.1" x2="158.4" y2="208.1" gradientTransform="translate(0 348) scale(1 -1)" gradientUnits="userSpaceOnUse">
      <stop offset="0" stop-color="#373737"/>
      <stop offset=".2" stop-color="#3c3d3e"/>
      <stop offset=".5" stop-color="#4b5052"/>
      <stop offset=".9" stop-color="#636e72"/>
      <stop offset="1" stop-color="#6d7b80"/>
    </linearGradient>
    <linearGradient id="linear-gradient3" x1="315" y1="196.6" x2="194.1" y2="196.6" gradientTransform="translate(0 348) scale(1 -1)" gradientUnits="userSpaceOnUse">
      <stop offset="0" stop-color="#373737"/>
      <stop offset=".3" stop-color="#3c3d3e"/>
      <stop offset=".6" stop-color="#4b5052"/>
      <stop offset=".9" stop-color="#636e72"/>
      <stop offset="1" stop-color="#6d7b80"/>
    </linearGradient>
  </defs>
  <g id="Layer_2-2">
    <polygon class="st6" points="174 0 174 253 347.8 325.5 347.8 0 174 0"/>
    <polygon class="st3" points="174 0 .2 0 .2 325.5 174 253 174 0"/>
    <polygon class="st5" points=".2 325.5 .2 347.6 347.8 347.6 347.8 325.5 174 253 .2 325.5"/>
    <path class="st2" d="M81.3,49.4c28.8-6.5,64.5,3.3,73.8,52.1l-17.2,5.8s-7.8-48.4-50.9-34.6c-40.8,13.1-42.8,73.2-40.9,96.1,0,0,2.7,54.5,35.3,62.4,32.6,7.9,61.4-26.6,61.4-26.6l-1.1-41.3-36,8.7-1.3-21.5,53-9,1.1,66.3s-23.2,36-59.7,43.3-68.4-6.4-77.7-67.6,10.9-123.1,60.2-134.2Z"/>
    <path class="st4" d="M329.1,123.9l-24.5,1.4s-2.2-57.5-51.2-54.5-48.8,86.9-40.1,115.3,23.7,41,43.9,45.1,35.1.1,43.3-32.8l24.8,5.9s-7.8,65.2-72,46.3-62.9-93.5-61.7-117,7.3-57.7,31.1-73.8,66.5-14.1,83.9,6.1c17.5,20.2,20.1,33.1,22.5,58.2h0Z"/>
    <polyline class="st0" points="347.8 325.5 174 253 174 0"/>
    <line class="st0" x1="174" y1="253" x2=".2" y2="325.5"/>
    <g id="ViewLayer_LineSet">
      <g id="strokes">
        <path class="st1" d="M268.5,72.7l-2.3-1.9-2.3-1.9-.5-.4-2.5-1.7-2.4-1.7-2.6-1.5-2.6-1.5h-.2c0-.1-2.7-1.5-2.7-1.5l-2.7-1.4h-.2c0-.1-2.7-1.3-2.7-1.3l-2.3-1-2.8-1.1h0s-2.8-1-2.8-1l-2-.7-2.8-.9-1.2-.4-2.9-.8h-.1s-2.9-.8-2.9-.8h-.4c0,0-2.9-.8-2.9-.8h-.3c0,0-2.9-.7-2.9-.7h-.4c0,0-2.9-.6-2.9-.6h-.4c0,0-2.9-.6-2.9-.6h-.1s-3,0-3,0h-3s-3,0-3,0h-3s-3,0-3,0h-3s-3,0-3,0h-3s-3,0-3,0h-3s-3,0-3,0h-3s-2.4,0-2.4,0h-3s-3,0-3,0h-3s-3,0-3,0h-3s-3,0-3,0h-3s-3,0-3,0h-3s-3,0-3,0h-2s-2.9.5-2.9.5h-.8c0,.1-2.9.7-2.9.7l-1.4.3-2.9.7-2,.5-2.9.8-1.8.5-2.8.8-1.7.5-2.8.9-1.6.5-2.8,1-1.5.5-2.8,1.1-1.4.5-2.7,1.2-1.3.6-2.7,1.3-2.7,1.3-.4.2-2.6,1.4-1,.5-2.6,1.5-1,.6-2.5,1.6-2.5,1.6-.4.3-2.4,1.7-.9.6"/>
        <path class="st1" d="M278.7,120.4l-.9-2.9-.6-2-1.1-2.8-.7-1.8-1.2-2.8-.8-1.9-1.4-2.7-1.4-2.7v-.2c0,0-1.7-2.6-1.7-2.6l-.2-.3-1.8-2.4-1.4-1.9-2-2.3-.6-.7-2.1-2.1-1.8-1.7-2.3-1.9-.3-.2-2.5-1.7-2.6-1.5-1.2-.7-2.7-1.3-1.2-.6-2.7-1-2.9-.8h-.4c0,0-2.9-.6-2.9-.6h-.3c0,0-5.1-.7-8-.4l-2.9.3h-.5c0,0-2.9.7-2.9.7l-.8.2-2.8,1.1-.5.2"/>
        <path class="st1" d="M218.2,78.6l1.2.5,2.7,1.3,2.7,1.3.5.2,2.6,1.5.6.3,2.5,1.7,1.2.8,2.4,1.9,1,.8,2.2,2,.3.3,2.1,2.2.3.3,2,2.3.2.3,1.7,2.5,1.7,2.5.3.5,1.5,2.6.4.7,1.4,2.7.4.7,1.2,2.8,1.1,2.6,2.9.7,2.9.7,2.9.7,2.9.7,2.9.7,2.9.7,2.9.7,2.9.7,2.9.7h.3c0,0,2.6-1.4,2.6-1.4l1.9-1.1,2.6-1.5,2.6-1.5,2.6-1.5,1.7-1-.9-2.9-.5-1.6-1.1-2.8-.8-2.2-1.2-2.8-.7-1.5-1.4-2.7-.8-1.6-1.5-2.6-.3-.6-1.6-2.5-1.6-2.5-1.8-2.4-1.1-1.5-2-2.2-2-2.2-1.3-1.4-2.2-2.1-1.2-1.2"/>
        <path class="st1" d="M243.3,226.2l-1.8.4-2.9.4h-.2s-3,.1-3,.1h-.4l-3-.2h-2c0-.1-2.9-.7-2.9-.7h-.4c0,0-2.9-.9-2.9-.9l-2-.6-2.7-1.2-.6-.3-2.6-1.5-.4-.2-2.2-1.8-1.4-1.4-1.9-2.4h-.1c0-.1-1.5-2.6-1.5-2.6l-2.1-2.1-.7-.7-2-2.3-.4-.4-1.9-2.4-.4-.5-1.7-2.5-.4-.5-1.6-2.6-.4-.6-1.4-2.7-.4-.7-1.3-2.8-.4-.8-1.1-2.8-1.1-2.8-.9-2.9-.4-1.1-.8-2.9-.3-1.2-.7-3-.3-1.3-.6-3-.6-3v-.7c-.1,0-.6-3-.6-3l-.2-1.6-.3-3-.3-3v-1.1c-.1,0-.3-3.1-.3-3.1v-1.9c-.1,0-.2-2.9-.2-2.9"/>
        <path class="st1" d="M81.3,72.4l-2.4,1.8-.8.6-2.3,1.9-1.8,1.5-2.2,2-.7.6-2.1,2.1-.6.6-2.1,2.2-.6.6-1.9,2.3-1.9,2.3-.3.4-1.8,2.4-.5.7-1.7,2.5-.5.7-1.6,2.6-1,1.5-1.5,2.6-.4.7-1.4,2.7-.4.7-1.3,2.8-.3.8-1.2,2.8-.3.8-1,2.9-1,2.9-.3.9-.8,2.9-.3.9-.7,3-.2.9-.6,3-.3,1.7-.5,3-.2,1-.3,3v1c-.1,0-.3,3-.3,3v1.1c0,0-.2,3.1-.2,3.1v1.1s0,3.1,0,3.1v1.2s0,3.1,0,3.1v1.3s.2,3.1.2,3.1v1.3c0,0,.4,3,.4,3v.6s.4,3,.4,3v1.2c.1,0,.6,3,.6,3l.2,1.1.5,3,.2,1,.7,3,.2.9.8,2.9.2.9.9,2.9.2.8,1,2.9.4,1.1,1.1,2.8,1.1,2.8.4,1,1.3,2.8.3.6,1.4,2.7.3.6,1.5,2.6.3.5,1.6,2.6.5.8,1.7,2.5.3.5,1.8,2.4.3.4,1.9,2.4.3.4,1.9,2.3h0c0,0,2,2.3,2,2.3l.6.7,2.1,2.1h0c0,0,2.2,2.1,2.2,2.1l.7.7,2.3,2h0c0,0,2.3,2,2.3,2l.8.6,2.4,1.8.5.4,2.4,1.7h0c0,0,2.5,1.7,2.5,1.7l.5.4,2.6,1.6,1.1.6,2.6,1.5h.1c0,0,2.6,1.5,2.6,1.5l2.6,1.4,2.6,1.4,2.6,1.4,2.6,1.4,2.6,1.4,2.6,1.4,2.6,1.4,2.6,1.4,2.6,1.4,2.6,1.4,2.6,1.4,2.6,1.4,2.6,1.4,2.6,1.4,2.6,1.4,2.6,1.4,2.6,1.4,2.6,1.4,2.6,1.4,2.6,1.4,2.6,1.4,2.6,1.4,2.6,1.4,2.6,1.4,2.6,1.4,2.6,1.4,2.6,1.4,2.6,1.4,2.6,1.4,3.1,1.7,2.6-1.5,2.6-1.5,2.6-1.5,2.6-1.5,2.6-1.5,2.6-1.5,2.6-1.5,2.6-1.5,2.6-1.5,2.6-1.5,2.6-1.5,2.6-1.5,2.6-1.5,2.6-1.5,2.6-1.5,2.6-1.5,2.6-1.5,2.6-1.5,2.6-1.5,2.6-1.5,2.6-1.5,2.6-1.5,2.6-1.5,2.6-1.5,2.6-1.5,2.6-1.4,2.6-1.4,2.6-1.4,2.6-1.4,2.6-1.4,2.6-1.4,2.6-1.4,3.1-1.7,2.6-1.5h.2c0-.1,2.5-1.6,2.5-1.6l2.5-1.6.3-.2,2.5-1.7h0s2.4-1.8,2.4-1.8l2.1-2.2,1.9-1.9,1.9-2.4.5-.7,1.7-2.5.5-.8,1.4-2.7,1.4-2.7v-.2c.1,0,1.3-2.8,1.3-2.8l.5-1.2,1.1-2.9.5-1.3.9-2.9.5-1.5.7-3,.7-3,.3-1.1-2.8-.9-2.8-.9-2.8-.9-2.8-.9-2.8-.9-2.8-.9-2.8-.9-2.8-.9-.9-.3-2.7,1.2-2.7,1.2-2.7,1.2-2.7,1.2-2.7,1.2h-.3c0,.1-.7,3.1-.7,3.1l-.4,1.9-.8,2.9h0c0,.1-.9,3-.9,3h0s-1.1,2.8-1.1,2.8l-1.3,2.8-1.1,2.4-1.6,2.5-1.6,2.5-.2.3-1.9,2.1-.5.5-2.4,1.8-.2.2-2.5,1.5-2.6,1.4-.6.3-2.7,1.3-1.4.7"/>
        <path class="st1" d="M204.4,273.4l-.9-.5-.8-.7-.7-.9-1.1-2.3-.9-2.9-.5-2.3-.5-3-.3-2.1-.4-3-.2-1.4-.3-3-.3-3v-1.2c-.1,0-2.9-1.2-2.9-1.2l-2.7-1.2-2.7-1.2-2.7-1.2-2.7-1.2-2.7-1.2-2.7-1.2-2.7-1.2-2.7-1.2-.5-.2-2.8.9-2.8.9-2.8.9-2.8.9-2.8.9-2.8.9-2.8.9-2.8.9-2.8.9-.5.2.3,3v.8c0,0,.3,3,.3,3v.5s.3,3,.3,3v.3s.3,3,.3,3h0s.2,2.9.2,2.9l.2,2.6v2.4c.1,0,.2,2.1.2,2.1v1.8s-.1,1.5-.1,1.5l-.2,1.3-.7,1.6-1.1.8h-1.4c0,0-1.2-.1-1.2-.1l-1.4-.5-1.5-.6-2.1-1-2.2-1.1-2.2-1.1-2.6-1.4-.5-.2-2.6-1.4-.5-.3-2.6-1.4-1-.6-2.3-1.3-2.6-1.5-2.6-1.5h0s-2.6-1.6-2.6-1.6l-1.2-.7-2.5-1.6-2.5-1.6-1.2-.8-2.5-1.7-1.6-1.1-2.4-1.8-1.6-1.2-2.4-1.9-1.6-1.3-2.3-1.9-1.6-1.4-2.2-2.1-.9-.8-2.1-2.1-.4-.4-2-2.2-2-2.2-1.2-1.4-1.8-2.4-1.8-2.4-1.2-1.6-1.6-2.6-1.6-2.6-1.2-1.8-1.4-2.7-1.2-2.2-1.3-2.8-1.3-2.8-.5-1-1.1-2.8-.5-1.2-1-2.9-.2-.6-.9-2.9-.6-2.1-.7-3-.7-3-.2-1-.6-3-.2-1.2-.5-3-.2-1.2-.4-3-.2-1.3-.3-3v-1.4c-.1,0-.3-3.1-.3-3.1v-1.4c0,0,0-3.1,0-3.1v-3.1s0-.5,0-.5v-3.1c.1,0,.2-3.1.2-3.1v-.4l.3-3,.2-1.7.4-3,.2-1.6.5-3v-.7c.1,0,.8-3,.8-3l.5-2.3.8-2.9.8-2.9,1-2.9.7-2,1.2-2.8.2-.6,1.3-2.7.7-1.4,1.4-2.7.4-.8,1.6-2.6.7-1.1,1.7-2.5,1.7-2.5.4-.6,1.9-2.3,1.5-1.8,2-2.2,1.2-1.3,2.2-2.1,1-1,2.3-2,.7-.6,2.4-1.8,1.8-1.4,2.5-1.7,1.5-1,2.6-1.5,1.7-1,2.7-1.3,2.7-1.3.5-.2,2.8-1.1,2.8-.8,1.4-.4,2.9-.6,1.3-.2"/>
        <path class="st1" d="M170.5,150.8l.2-3.1.2-3.1v-.9c0,0,.2-3.1.2-3.1v-2.2c.1,0,.3-3.1.3-3.1v-2.1c.1,0,.4-3.1.4-3.1v-2c.1,0,.4-3,.4-3v-1.9c.1,0,.4-3,.4-3v-1.7c.1,0,.4-3,.4-3v-1.6c.1,0,.4-3,.4-3v-1.4c.1,0,.4-3,.4-3v-1.3c.1,0,.2-1,.2-1l.3-3v-.2s.3-3,.3-3v-.6c0,0,.3-3,.3-3v-1.3c.1,0,.4-3,.4-3v-.7c0,0,.4-3,.4-3v-.6c0,0,.3-3,.3-3v-.4s.3-3,.3-3v-.2"/>
        <path class="st1" d="M158.2,181.2l.8,2.9.3,1.1.8,2.9.8,2.9.8,2.9.8,2.9.8,2.9.4,1.4-1.2,2.8v.3c-.1,0-1.4,2.7-1.4,2.7v.2c-.1,0-1.6,2.6-1.6,2.6v.2c-.1,0-1.8,2.5-1.8,2.5l-.2.3-1.8,2.4-2.1,2.2h-.1c0,.1-2.2,2.2-2.2,2.2h-.2c0,.1-2.3,2-2.3,2l-1.6,1.2-2.5,1.6-.4.2-2.6,1.4-.5.2-2.7,1.2-.6.3-2,.7-2,.6-2,.5-2.9.4-2.9.4h-.2s-3,0-3,0h-1.2l-2.4-.2-2.9-.5-1.8-.3"/>
        <path class="st1" d="M204.4,273.4l1.5.4h1.6c0,0,1.9-.5,1.9-.5l2.2-.8,2.2-1,1.7-.9,2.6-1.4.4-.2,1.7-.9,1.8-1,1.9-1,2.6-1.5.9-.5,2.6-1.5,1-.5,2.6-1.5,1-.6,2.6-1.5,1.1-.6,2.6-1.6,1.2-.7,2.5-1.6h.2c0-.1,2.5-1.7,2.5-1.7l.4-.2,2.1-1.4,2.5-1.7,1-.7,2.4-1.8,2.4-1.8.7-.6,2.3-1.8,2.3-1.9.8-.7,2.2-2,.6-.5"/>
        <path class="st1" d="M125.6,236l-2.5-1.2-2.6-1.5-2.6-1.5-1.1-.6-2.5-1.7-.3-.2-1.7-1.2-2.4-1.9-.5-.4-2.3-2-1.1-1-2.1-2.1-.4-.4-2-2.3-2-2.3-.8-.9-1.8-2.4-1.4-1.9-1.6-2.6-1.6-2.6h0c0,0-1.4-2.8-1.4-2.8l-1.1-2.2-1.2-2.8-.7-1.7-1-2.9-1-2.9v-.3c0,0-.9-2.9-.9-2.9l-.8-2.7-.7-3-.6-2.8-.4-3-.4-3-.3-2.4-.2-3-.2-3v-.3s-.1-3.1-.1-3.1v-.9s0-3.1,0-3.1v-3.1s0-.2,0-.2l.2-3.1v-2.4c.1,0,.5-3,.5-3l.4-3v-.7c0,0,.7-3,.7-3l.6-3,.4-2,.8-2.9.2-.7.9-2.9.6-1.9,1.1-2.8.2-.7,1.3-2.8,1.1-2.4,1.4-2.7.8-1.5,1.6-2.6.4-.6,1.7-2.5,1-1.4,1.9-2.4.5-.6,2-2.2,1.1-1.3,2.2-2.1,1.9-1.9,2.3-1.9.7-.6,2.4-1.8,1.4-1.1,2.5-1.7.9-.6,2.6-1.5,1.6-1,2.6-1.4h0s2.7-1.3,2.7-1.3h0c0,0,2.7-1.3,2.7-1.3h.1c0,0,2.8-1.2,2.8-1.2h.2c0,0,2.6-1,2.6-1"/>
        <path class="st1" d="M175.2,293.5v-.2c-.1,0-.2-.3-.2-.3v-.4c-.1,0-.2-.6-.2-.6"/>
        <path class="st1" d="M173.7,283.9l-.2-2.1-.2-2.3-.2-2.5-.2-3-.2-3-.2-3v-.9c0,0-.4-3-.4-3v-1.7c-.1,0-.3-1.4-.3-1.4l-.3-3v-1.8"/>
        <path class="st1" d="M174.4,290.1v-1.3c-.1,0-.3-1.4-.3-1.4l-.2-1.7-.2-1.9.3,3v.5"/>
        <path class="st1" d="M177.8,66.4l.2-2,.2-1.8-.3,3v.7c0,0-.3,2.1-.3,2.1l-.2,2.2v.4c0,0,0,0,0,0h0l-.2,1.8-.3,2.8-.3,3h0"/>
        <path class="st1" d="M144.7,139.5l-2.9.6-2.9.6-2.9.6-2.9.6-2.9.6-2.9.6-2.9.6-2.9.6-1.8.4v3.1c0,0,.2,2.9.2,2.9l.2,3.1v.7s.2,3.1.2,3.1v.6s.3,3,.3,3v.5s.3,3,.3,3v.6c0,0,2.9.9,2.9.9l2.8.9,2.8.9,2.8.9,2.8.9,1.9.6,2.9-.7,2.9-.7,2.9-.7,2.9-.7,2.9-.7,2.9-.7,1.1-.3,2.9-.7,2.9-.7,2.9-.7,2.9-.7,2.9-.7h.2c0,0,.8-.2.8-.2"/>
        <path class="st1" d="M137,170.2l-.3-3-.2-2.2-.2-3-.2-2.5v-3.1c-.1,0-.3-2.7-.3-2.7v-3.1c0,0-.1-1.9-.1-1.9"/>
        <path class="st1" d="M144.5,146.9l-2.9.6-2.9.6-2.9.6-2.9-.7-2.9-.7-2.9-.7-2.9-.7-2.9-.7-1.7-.4"/>
        <path class="st1" d="M279.5,205.1l-.6,3-.4,2-.7,3-.5,1.8-.9,2.9-.5,1.6-1.1,2.8-1.1,2.8-.3.7-1.3,2.8-.6,1.2-1.5,2.7-.6,1.1-1.8,2.5-.9,1.2"/>
        <path class="st1" d="M184.6,207.2l-2.9-.8-2.9-.8-2.9-.8-2.9-.8-2.9-.8-2.9-.8-2.9-.8-1.1-.3"/>
        <path class="st1" d="M183.9,213.4l.2-2,.2-2.1.2-2.1-1.5-2.6-.4-.7-1.4-2.7-1.3-2.6-1.2-2.8-.4-1-1-2.9-1-2.9v-.2c0,0-1-2.9-1-2.9l-.4-1.2-.8-2.9-.4-1.4-.7-3-.3-1.5-.6-3-.3-1.7-.5-3-.3-1.8-.4-3-.2-1.9"/>
        <path class="st1" d="M125.6,236l2.6,1.2"/>
        <path class="st1" d="M174.6,291.1v-1c-.1,0,.1,1.9.1,1.9v-.8"/>
        <path class="st1" d="M155.3,165.5v.9c.1,0,.6,3,.6,3h0c0,0,.5,3.1.5,3.1l.6,3,.6,2.9.6,2.9.7,2.8.4,1.3"/>
        <path class="st1" d="M197.4,246.9l-2.8,1-2.8,1-2.8,1-2.8,1-2.8,1-2.8,1-2.8,1-2.8,1-2.8,1-.8.3-2.7-1.3-2.7-1.3-2.7-1.3-2.7-1.3-2.7-1.3-2.7-1.3-2.7-1.3-2.7-1.3-2.7-1.3-.9-.4"/>
        <path class="st1" d="M144.4,150.9h5.9s3,0,3,0h3s3,0,3,0h3s3,0,3,0h3s2.4,0,2.4,0"/>
        <path class="st1" d="M116.2,75.5l3-.2h1.7"/>
        <path class="st1" d="M218.8,78.2l-.6.4-2.3,1.4-.3.3-2.3,2-.3.4-1.9,2.3-1.5,2.5v.2c-.1,0-1.5,2.7-1.5,2.7v.2c0,0-1.3,2.8-1.3,2.8v.2c0,0-1.1,2.8-1.1,2.8l-.4,1.2-.9,2.9-.5,2-.8,2.9v.7c-.1,0-.8,3-.8,3l-.3,1.5-.6,3-.4,2.9-.5,3v.6c0,0-.5,3-.5,3l-.4,3v1.1c-.1,0-.4,3-.4,3l-.3,3-.3,3-.3,3v1.9c-.1,0-.4,3-.4,3l-1.5.4-2.9.7-2.9.7-2.9.7-2.9.7-2.7.6-2.9.7-2.9.7-2.9.7-2.9.7h-3.3s-3,0-3,0h-3s-3,0-3,0h-3s-2.1,0-2.1,0h-3s-3,0-3,0h-3s0-.9,0-.9v-3.1c0,0,.1-1.5.1-1.5v-2.3c0,0,.1-3.1.1-3.1v-.5s0-1.6,0-1.6v-3.1c0,0,.1-2,.1-2v-3.1c0,0,.1-1.8.1-1.8v-3.1c0,0,.1-1.7.1-1.7v-3.1c0,0,.1-1.5.1-1.5v-3.1c0,0,0-1.2,0-1.2v-4.1s0-3.1,0-3.1v-.8s-.2-3.1-.2-3.1v-.6c0,0-.3-3-.3-3v-.4s-.4-3-.4-3h0c0-.1-.5-3.2-.5-3.2l-.7-2.9-.8-2.7-.9-2.2-1.3-2.3-1.4-1.9-1.6-1.7-1.8-1.2-.4-.2-2-1.1-2.6-.9-2.9-.7h-.5c0,0-2.7-.4-2.7-.4h-3.9c0,0-3,.2-3,.2h-1.1"/>
        <path class="st1" d="M255.1,199.8l2.9.6,2.9.6,2.9.6,2.9.6,2.9.6,2.9.6,2.9.6,2.9.6,1.2.3,2.9-.9,2.9-.9,2.9-.9,2.9-.9,1.8-.6"/>
      </g>
    </g>
  </g>
</svg>